<svg width="3164" height="2378" xmlns="http://www.w3.org/2000/svg" xmlns:xlink="http://www.w3.org/1999/xlink" xml:space="preserve" overflow="hidden"><g transform="translate(-631 -44)"><rect x="1120.5" y="1391.5" width="477" height="253" stroke="#156082" stroke-width="6.875" stroke-miterlimit="8" fill="#FFFFFF"/><text font-family="Yu Gothic,Yu Gothic_MSFontService,sans-serif" font-weight="400" font-size="50" transform="matrix(1 0 0 1 1156.67 1473)">非木造の場合は耐</text><text font-family="Yu Gothic,Yu Gothic_MSFontService,sans-serif" font-weight="400" font-size="50" transform="matrix(1 0 0 1 1156.67 1534)">力を変動させない</text><text font-family="Yu Gothic,Yu Gothic_MSFontService,sans-serif" font-weight="400" font-size="50" transform="matrix(1 0 0 1 1205.94 1594)">ByearAA</text><text font-family="Yu Gothic,Yu Gothic_MSFontService,sans-serif" font-weight="400" font-size="50" transform="matrix(1 0 0 1 1404.74 1594)">=1.0</text><path d="M732.5 818 1358.5 660.5 1984.5 818 1358.5 975.5Z" stroke="#156082" stroke-width="6.875" stroke-miterlimit="8" fill="#FFFFFF" fill-rule="evenodd"/><text font-family="Yu Gothic,Yu Gothic_MSFontService,sans-serif" font-weight="400" font-size="50" transform="matrix(1 0 0 1 1131.46 773)">木造・非木造の分岐</text><text font-family="Yu Gothic,Yu Gothic_MSFontService,sans-serif" font-weight="400" font-size="50" transform="matrix(1 0 0 1 1283.01 834)">BCritA</text><text font-family="Yu Gothic,Yu Gothic_MSFontService,sans-serif" font-weight="400" font-size="50" transform="matrix(1 0 0 1 1177.3 894)">&gt;2000e+3 N/m</text><rect x="962.5" y="2289.5" width="793" height="94.0002" stroke="#156082" stroke-width="6.875" stroke-miterlimit="8" fill="#FFFFFF"/><text font-family="Yu Gothic,Yu Gothic_MSFontService,sans-serif" font-weight="400" font-size="50" transform="matrix(1 0 0 1 1039.8 2352)">cforce</text><text font-family="Yu Gothic,Yu Gothic_MSFontService,sans-serif" font-weight="400" font-size="50" transform="matrix(1 0 0 1 1197.35 2352)">= </text><text font-family="Yu Gothic,Yu Gothic_MSFontService,sans-serif" font-weight="400" font-size="50" transform="matrix(1 0 0 1 1248.34 2352)">BCritA</text><text font-family="Yu Gothic,Yu Gothic_MSFontService,sans-serif" font-weight="400" font-size="50" transform="matrix(1 0 0 1 1413.34 2352)">×</text><text font-family="Yu Gothic,Yu Gothic_MSFontService,sans-serif" font-weight="400" font-size="50" transform="matrix(1 0 0 1 1478.08 2352)">ByearAA</text><text font-family="Yu Gothic,Yu Gothic_MSFontService,sans-serif" font-weight="400" font-size="50" transform="matrix(1 0 0 1 1377.75 1022)">yes</text><path d="M1783.5 1259.5 2055 1101.5 2326.5 1259.5 2055 1417.5Z" stroke="#156082" stroke-width="6.875" stroke-miterlimit="8" fill="#FFFFFF" fill-rule="evenodd"/><text font-family="Yu Gothic,Yu Gothic_MSFontService,sans-serif" font-weight="400" font-size="50" transform="matrix(1 0 0 1 1963.75 1214)">IByearA</text><text font-family="Yu Gothic,Yu Gothic_MSFontService,sans-serif" font-weight="400" font-size="50" transform="matrix(1 0 0 1 2017.61 1275)">&gt;=</text><text font-family="Yu Gothic,Yu Gothic_MSFontService,sans-serif" font-weight="400" font-size="50" transform="matrix(1 0 0 1 1998.13 1335)">2000</text><path d="M2278.5 1464.5 2550 1306.5 2821.5 1464.5 2550 1622.5Z" stroke="#156082" stroke-width="6.875" stroke-miterlimit="8" fill="#FFFFFF" fill-rule="evenodd"/><text font-family="Yu Gothic,Yu Gothic_MSFontService,sans-serif" font-weight="400" font-size="50" transform="matrix(1 0 0 1 2459.03 1420)">IByearA</text><text font-family="Yu Gothic,Yu Gothic_MSFontService,sans-serif" font-weight="400" font-size="50" transform="matrix(1 0 0 1 2512.89 1481)">&gt;=</text><text font-family="Yu Gothic,Yu Gothic_MSFontService,sans-serif" font-weight="400" font-size="50" transform="matrix(1 0 0 1 2493.41 1541)">1982</text><path d="M2871.5 1657 3143 1498.5 3414.5 1657 3143 1815.5Z" stroke="#156082" stroke-width="6.875" stroke-miterlimit="8" fill="#FFFFFF" fill-rule="evenodd"/><text font-family="Yu Gothic,Yu Gothic_MSFontService,sans-serif" font-weight="400" font-size="50" transform="matrix(1 0 0 1 3051.96 1612)">IByearA</text><text font-family="Yu Gothic,Yu Gothic_MSFontService,sans-serif" font-weight="400" font-size="50" transform="matrix(1 0 0 1 3105.82 1673)">&gt;=</text><text font-family="Yu Gothic,Yu Gothic_MSFontService,sans-serif" font-weight="400" font-size="50" transform="matrix(1 0 0 1 3086.34 1733)">1959</text><path d="M1984.5 816.208 2056.89 816.208 2056.89 1078.97 2052.3 1078.97 2052.3 818.5 2054.59 820.792 1984.5 820.792ZM2068.34 1074.38 2054.59 1101.88 2040.84 1074.38Z" fill="#156082"/><text font-family="Yu Gothic,Yu Gothic_MSFontService,sans-serif" font-weight="400" font-size="50" transform="matrix(1 0 0 1 2011.71 840)">no</text><path d="M1360.79 975.5 1360.79 1368.31 1356.21 1368.31 1356.21 975.5ZM1372.25 1363.73 1358.5 1391.23 1344.75 1363.73Z" fill="#156082"/><path d="M1360.79 1644.5 1360.79 2266.67 1356.21 2266.67 1356.21 1644.5ZM1372.25 2262.08 1358.5 2289.58 1344.75 2262.08Z" fill="#156082"/><rect x="1898.5" y="1900.5" width="315" height="161" stroke="#156082" stroke-width="6.875" stroke-miterlimit="8" fill="#FFFFFF"/><text font-family="Yu Gothic,Yu Gothic_MSFontService,sans-serif" font-weight="400" font-size="50" transform="matrix(1 0 0 1 1937.59 1966)">ByearAA</text><text font-family="Yu Gothic,Yu Gothic_MSFontService,sans-serif" font-weight="400" font-size="50" transform="matrix(1 0 0 1 2136.39 1966)">=</text><text font-family="Yu Gothic,Yu Gothic_MSFontService,sans-serif" font-weight="400" font-size="50" transform="matrix(1 0 0 1 2020.66 2027)">1.1</text><text font-family="Yu Gothic,Yu Gothic_MSFontService,sans-serif" font-weight="400" font-size="50" transform="matrix(1 0 0 1 2070.29 1452)">yes</text><path d="M2326.5 1257.21 2552.51 1257.21 2552.51 1283.53 2547.93 1283.53 2547.93 1259.5 2550.22 1261.79 2326.5 1261.79ZM2563.97 1278.95 2550.22 1306.45 2536.47 1278.95Z" fill="#156082"/><text font-family="Yu Gothic,Yu Gothic_MSFontService,sans-serif" font-weight="400" font-size="50" transform="matrix(1 0 0 1 2307.87 1235)">no</text><path d="M2056.79 1417.5 2057.79 1877.4 2053.21 1877.41 2052.21 1417.51ZM2069.24 1872.79 2055.55 1900.32 2041.74 1872.85Z" fill="#156082"/><rect x="2392.5" y="1900.5" width="315" height="161" stroke="#156082" stroke-width="6.875" stroke-miterlimit="8" fill="#FFFFFF"/><text font-family="Yu Gothic,Yu Gothic_MSFontService,sans-serif" font-weight="400" font-size="50" transform="matrix(1 0 0 1 2431.82 1966)">ByearAA</text><text font-family="Yu Gothic,Yu Gothic_MSFontService,sans-serif" font-weight="400" font-size="50" transform="matrix(1 0 0 1 2630.62 1966)">=</text><text font-family="Yu Gothic,Yu Gothic_MSFontService,sans-serif" font-weight="400" font-size="50" transform="matrix(1 0 0 1 2514.89 2027)">1.0</text><text font-family="Yu Gothic,Yu Gothic_MSFontService,sans-serif" font-weight="400" font-size="50" transform="matrix(1 0 0 1 2573.92 1643)">yes</text><path d="M2552.79 1622.5 2552.79 1877.34 2548.21 1877.34 2548.21 1622.5ZM2564.25 1872.75 2550.5 1900.25 2536.75 1872.75Z" fill="#156082"/><path d="M2821.5 1462.21 3145.16 1462.21 3145.16 1475.7 3140.57 1475.7 3140.57 1464.5 3142.87 1466.79 2821.5 1466.79ZM3156.62 1471.12 3142.87 1498.62 3129.12 1471.12Z" fill="#156082"/><text font-family="Yu Gothic,Yu Gothic_MSFontService,sans-serif" font-weight="400" font-size="50" transform="matrix(1 0 0 1 2830.02 1437)">no</text><rect x="2985.5" y="1900.5" width="315" height="161" stroke="#156082" stroke-width="6.875" stroke-miterlimit="8" fill="#FFFFFF"/><text font-family="Yu Gothic,Yu Gothic_MSFontService,sans-serif" font-weight="400" font-size="50" transform="matrix(1 0 0 1 3024.75 1966)">ByearAA</text><text font-family="Yu Gothic,Yu Gothic_MSFontService,sans-serif" font-weight="400" font-size="50" transform="matrix(1 0 0 1 3223.55 1966)">=</text><text font-family="Yu Gothic,Yu Gothic_MSFontService,sans-serif" font-weight="400" font-size="50" transform="matrix(1 0 0 1 3107.82 2027)">1.0</text><text font-family="Yu Gothic,Yu Gothic_MSFontService,sans-serif" font-weight="400" font-size="50" transform="matrix(1 0 0 1 3165.36 1857)">yes</text><path d="M3144.79 1815.5 3144.79 1878.09 3140.21 1878.09 3140.21 1815.5ZM3156.25 1873.51 3142.5 1901.01 3128.75 1873.51Z" fill="#156082"/><path d="M3414.5 1655.21 3540.84 1655.21 3540.84 1878.22 3536.25 1878.22 3536.25 1657.5 3538.55 1659.79 3414.5 1659.79ZM3552.3 1873.63 3538.55 1901.13 3524.8 1873.63Z" fill="#156082"/><text font-family="Yu Gothic,Yu Gothic_MSFontService,sans-serif" font-weight="400" font-size="50" transform="matrix(1 0 0 1 3413.82 1643)">no</text><rect x="3381.5" y="1900.5" width="314" height="161" stroke="#156082" stroke-width="6.875" stroke-miterlimit="8" fill="#FFFFFF"/><text font-family="Yu Gothic,Yu Gothic_MSFontService,sans-serif" font-weight="400" font-size="50" transform="matrix(1 0 0 1 3420.36 1966)">ByearAA</text><text font-family="Yu Gothic,Yu Gothic_MSFontService,sans-serif" font-weight="400" font-size="50" transform="matrix(1 0 0 1 3619.16 1966)">=</text><text font-family="Yu Gothic,Yu Gothic_MSFontService,sans-serif" font-weight="400" font-size="50" transform="matrix(1 0 0 1 3503.43 2027)">0.8</text><path d="M2057.78 2061.5 2057.78 2177.47 1358.5 2177.47 1360.79 2175.18 1360.79 2265.95 1356.21 2265.95 1356.21 2172.89 2055.49 2172.89 2053.19 2175.18 2053.19 2061.5ZM1372.25 2261.36 1358.5 2288.86 1344.75 2261.36Z" fill="#156082"/><path d="M2552.01 2061.5 2552.01 2177.47 1358.5 2177.47 1360.79 2175.18 1360.79 2265.95 1356.21 2265.95 1356.21 2172.89 2549.72 2172.89 2547.43 2175.18 2547.43 2061.5ZM1372.25 2261.36 1358.5 2288.86 1344.75 2261.36Z" fill="#156082"/><path d="M3144.94 2061.5 3144.94 2177.48 1358.5 2177.48 1360.79 2175.18 1360.79 2265.95 1356.21 2265.95 1356.21 2172.89 3142.65 2172.89 3140.35 2175.18 3140.35 2061.5ZM1372.25 2261.36 1358.5 2288.86 1344.75 2261.36Z" fill="#156082"/><path d="M1729 1106.73C1729 1082.58 1748.58 1063 1772.73 1063L3705.27 1063C3729.42 1063 3749 1082.58 3749 1106.73L3749 2078.27C3749 2102.42 3729.42 2122 3705.27 2122L1772.73 2122C1748.58 2122 1729 2102.42 1729 2078.27Z" stroke="#042433" stroke-width="10.3125" stroke-miterlimit="8" stroke-dasharray="41.25 30.9375" fill="none" fill-rule="evenodd"/><text font-family="Yu Gothic,Yu Gothic_MSFontService,sans-serif" font-weight="400" font-size="50" transform="matrix(1 0 0 1 1931.05 797)">木造の場合</text><text font-family="Yu Gothic,Yu Gothic_MSFontService,sans-serif" font-weight="400" font-size="50" transform="matrix(1 0 0 1 2720.41 1160)">木造建物の築年代によって耐力を変動</text><text font-family="Yu Gothic,Yu Gothic_MSFontService,sans-serif" font-weight="400" font-size="32" transform="matrix(1 0 0 1 2720.41 1204)">※1958</text><text font-family="Yu Gothic,Yu Gothic_MSFontService,sans-serif" font-weight="400" font-size="32" transform="matrix(1 0 0 1 2823.54 1204)">年以前か年代不明</text><text font-family="Yu Gothic,Yu Gothic_MSFontService,sans-serif" font-weight="400" font-size="32" transform="matrix(1 0 0 1 3080.21 1204)">=1000</text><text font-family="Yu Gothic,Yu Gothic_MSFontService,sans-serif" font-weight="400" font-size="32" transform="matrix(1 0 0 1 3174.74 1204)">の場合は、年代不明の場合は古す</text><text font-family="Yu Gothic,Yu Gothic_MSFontService,sans-serif" font-weight="400" font-size="32" transform="matrix(1 0 0 1 2720.41 1242)">ぎて情報が残っていない可能性があるので、安全側の評価結果に</text><text font-family="Yu Gothic,Yu Gothic_MSFontService,sans-serif" font-weight="400" font-size="32" transform="matrix(1 0 0 1 2720.41 1281)">なるように閾値</text><text font-family="Yu Gothic,Yu Gothic_MSFontService,sans-serif" font-weight="400" font-size="32" transform="matrix(1 0 0 1 2945 1281)">(</text><text font-family="Yu Gothic,Yu Gothic_MSFontService,sans-serif" font-weight="400" font-size="32" transform="matrix(1 0 0 1 2957.6 1281)">耐力</text><text font-family="Yu Gothic,Yu Gothic_MSFontService,sans-serif" font-weight="400" font-size="32" transform="matrix(1 0 0 1 3021.77 1281)">)</text><text font-family="Yu Gothic,Yu Gothic_MSFontService,sans-serif" font-weight="400" font-size="32" transform="matrix(1 0 0 1 3034.37 1281)">を低めに設定する。耐力をゼロにしてしま</text><text font-family="Yu Gothic,Yu Gothic_MSFontService,sans-serif" font-weight="400" font-size="32" transform="matrix(1 0 0 1 2720.41 1319)">うと、建物が完全に無いことになって、実態とかけ離れすぎるリ</text><text font-family="Yu Gothic,Yu Gothic_MSFontService,sans-serif" font-weight="400" font-size="32" transform="matrix(1 0 0 1 2720.41 1358)">スクが高いので、ゼロにはしない。</text><rect x="751" y="844" width="406" height="433" fill="#FFFFFF" fill-opacity="0.698039"/><text font-family="Yu Gothic,Yu Gothic_MSFontService,sans-serif" font-weight="400" font-size="41" transform="matrix(1 0 0 1 784.35 899)">※</text><text font-family="Yu Gothic,Yu Gothic_MSFontService,sans-serif" font-weight="400" font-size="41" transform="matrix(1 0 0 1 825.6 899)">構造種別の違い</text><text font-family="Yu Gothic,Yu Gothic_MSFontService,sans-serif" font-weight="400" font-size="41" transform="matrix(1 0 0 1 784.35 948)">は</text><text font-family="Yu Gothic,Yu Gothic_MSFontService,sans-serif" font-weight="400" font-size="41" transform="matrix(1 0 0 1 825.6 948)">BCritA</text><text font-family="Yu Gothic,Yu Gothic_MSFontService,sans-serif" font-weight="400" font-size="41" transform="matrix(1 0 0 1 948.777 948)">の絶対値</text><text font-family="Yu Gothic,Yu Gothic_MSFontService,sans-serif" font-weight="400" font-size="41" transform="matrix(1 0 0 1 784.35 998)">で判定する必要が</text><text font-family="Yu Gothic,Yu Gothic_MSFontService,sans-serif" font-weight="400" font-size="41" transform="matrix(1 0 0 1 784.35 1047)">ある。</text><text font-family="Yu Gothic,Yu Gothic_MSFontService,sans-serif" font-weight="400" font-size="41" transform="matrix(1 0 0 1 920.131 1047)">RC</text><text font-family="Yu Gothic,Yu Gothic_MSFontService,sans-serif" font-weight="400" font-size="41" transform="matrix(1 0 0 1 975.704 1047)">等の非</text><text font-family="Yu Gothic,Yu Gothic_MSFontService,sans-serif" font-weight="400" font-size="41" transform="matrix(1 0 0 1 784.35 1097)">木造の</text><text font-family="Yu Gothic,Yu Gothic_MSFontService,sans-serif" font-weight="400" font-size="41" transform="matrix(1 0 0 1 908.1 1097)">BCritA</text><text font-family="Yu Gothic,Yu Gothic_MSFontService,sans-serif" font-weight="400" font-size="41" transform="matrix(1 0 0 1 1031.28 1097)">は木</text><text font-family="Yu Gothic,Yu Gothic_MSFontService,sans-serif" font-weight="400" font-size="41" transform="matrix(1 0 0 1 784.35 1146)">造に比べるとかな</text><text font-family="Yu Gothic,Yu Gothic_MSFontService,sans-serif" font-weight="400" font-size="41" transform="matrix(1 0 0 1 784.35 1196)">り大きいという仮</text><text font-family="Yu Gothic,Yu Gothic_MSFontService,sans-serif" font-weight="400" font-size="41" transform="matrix(1 0 0 1 784.35 1245)">定の元に判定する。</text><text font-family="Yu Gothic,Yu Gothic_MSFontService,sans-serif" font-weight="400" font-size="55" transform="matrix(1 0 0 1 1833.07 2372)">※</text><text font-family="Yu Gothic,Yu Gothic_MSFontService,sans-serif" font-weight="400" font-size="55" transform="matrix(1 0 0 1 1888.07 2372)">現状では、階数</text><text font-family="Yu Gothic,Yu Gothic_MSFontService,sans-serif" font-weight="400" font-size="55" transform="matrix(1 0 0 1 2273.07 2372)">IBStoryA</text><text font-family="Yu Gothic,Yu Gothic_MSFontService,sans-serif" font-weight="400" font-size="55" transform="matrix(1 0 0 1 2493.64 2372)">と建物高さ</text><text font-family="Yu Gothic,Yu Gothic_MSFontService,sans-serif" font-weight="400" font-size="55" transform="matrix(1 0 0 1 2768.64 2372)">BHeightA</text><text font-family="Yu Gothic,Yu Gothic_MSFontService,sans-serif" font-weight="400" font-size="55" transform="matrix(1 0 0 1 3009.84 2372)">は使っていない</text><path d="M3540.55 2061.5 3540.55 2177.47 1358.5 2177.47 1360.79 2175.18 1360.79 2265.95 1356.21 2265.95 1356.21 2172.89 3538.26 2172.89 3535.96 2175.18 3535.96 2061.5ZM1372.25 2261.36 1358.5 2288.86 1344.75 2261.36Z" fill="#156082"/><text font-family="Yu Gothic,Yu Gothic_MSFontService,sans-serif" font-weight="400" font-size="48" transform="matrix(1 0 0 1 718.674 104)">! [IN]</text><text font-family="Yu Gothic,Yu Gothic_MSFontService,sans-serif" font-weight="400" font-size="48" transform="matrix(1 0 0 1 718.674 162)">! </text><text font-family="Yu Gothic,Yu Gothic_MSFontService,sans-serif" font-weight="400" font-size="48" transform="matrix(1 0 0 1 748.466 162)">BCritA</text><text font-family="Yu Gothic,Yu Gothic_MSFontService,sans-serif" font-weight="400" font-size="48" transform="matrix(1 0 0 1 906.591 162)">: </text><text font-family="Yu Gothic,Yu Gothic_MSFontService,sans-serif" font-weight="400" font-size="48" transform="matrix(1 0 0 1 934.091 162)">基本となる建屋倒壊判定閾値</text><text font-family="Yu Gothic,Yu Gothic_MSFontService,sans-serif" font-weight="400" font-size="48" transform="matrix(1 0 0 1 1559.72 162)">(N/m)</text><text font-family="Yu Gothic,Yu Gothic_MSFontService,sans-serif" font-weight="400" font-size="48" transform="matrix(1 0 0 1 718.674 220)">! </text><text font-family="Yu Gothic,Yu Gothic_MSFontService,sans-serif" font-weight="400" font-size="48" transform="matrix(1 0 0 1 748.466 220)">IByearA</text><text font-family="Yu Gothic,Yu Gothic_MSFontService,sans-serif" font-weight="400" font-size="48" transform="matrix(1 0 0 1 922.059 220)">: </text><text font-family="Yu Gothic,Yu Gothic_MSFontService,sans-serif" font-weight="400" font-size="48" transform="matrix(1 0 0 1 949.559 220)">建築年</text><text font-family="Yu Gothic,Yu Gothic_MSFontService,sans-serif" font-weight="400" font-size="48" transform="matrix(1 0 0 1 1093.93 220)">(</text><text font-family="Yu Gothic,Yu Gothic_MSFontService,sans-serif" font-weight="400" font-size="48" transform="matrix(1 0 0 1 1112.27 220)">西暦</text><text font-family="Yu Gothic,Yu Gothic_MSFontService,sans-serif" font-weight="400" font-size="48" transform="matrix(1 0 0 1 1208.52 220)">)</text><text font-family="Yu Gothic,Yu Gothic_MSFontService,sans-serif" font-weight="400" font-size="48" transform="matrix(1 0 0 1 718.674 277)">!          </text><text font-family="Yu Gothic,Yu Gothic_MSFontService,sans-serif" font-weight="400" font-size="48" transform="matrix(1 0 0 1 872.216 277)">建築年が不明な場合は</text><text font-family="Yu Gothic,Yu Gothic_MSFontService,sans-serif" font-weight="400" font-size="48" transform="matrix(1 0 0 1 1353.47 277)">1000</text><text font-family="Yu Gothic,Yu Gothic_MSFontService,sans-serif" font-weight="400" font-size="48" transform="matrix(1 0 0 1 1461.17 277)">が与えられる。</text><text font-family="Yu Gothic,Yu Gothic_MSFontService,sans-serif" font-weight="400" font-size="48" transform="matrix(1 0 0 1 718.674 335)">! </text><text font-family="Yu Gothic,Yu Gothic_MSFontService,sans-serif" font-weight="400" font-size="48" transform="matrix(1 0 0 1 748.466 335)">BHeightA</text><text font-family="Yu Gothic,Yu Gothic_MSFontService,sans-serif" font-weight="400" font-size="48" transform="matrix(1 0 0 1 959.872 335)">: </text><text font-family="Yu Gothic,Yu Gothic_MSFontService,sans-serif" font-weight="400" font-size="48" transform="matrix(1 0 0 1 987.372 335)">建物高さ</text><text font-family="Yu Gothic,Yu Gothic_MSFontService,sans-serif" font-weight="400" font-size="48" transform="matrix(1 0 0 1 1179.87 335)">(m)</text><text font-family="Yu Gothic,Yu Gothic_MSFontService,sans-serif" font-weight="400" font-size="48" transform="matrix(1 0 0 1 718.674 393)">! </text><text font-family="Yu Gothic,Yu Gothic_MSFontService,sans-serif" font-weight="400" font-size="48" transform="matrix(1 0 0 1 748.466 393)">IBStoryA</text><text font-family="Yu Gothic,Yu Gothic_MSFontService,sans-serif" font-weight="400" font-size="48" transform="matrix(1 0 0 1 942.684 393)">: </text><text font-family="Yu Gothic,Yu Gothic_MSFontService,sans-serif" font-weight="400" font-size="48" transform="matrix(1 0 0 1 970.184 393)">建物階数</text><text font-family="Yu Gothic,Yu Gothic_MSFontService,sans-serif" font-weight="400" font-size="48" transform="matrix(1 0 0 1 1162.68 393)">コード</text><text font-family="Yu Gothic,Yu Gothic_MSFontService,sans-serif" font-weight="400" font-size="48" transform="matrix(1 0 0 1 1307.06 393)">(</text><text font-family="Yu Gothic,Yu Gothic_MSFontService,sans-serif" font-weight="400" font-size="48" transform="matrix(1 0 0 1 1325.39 393)">右参照</text><text font-family="Yu Gothic,Yu Gothic_MSFontService,sans-serif" font-weight="400" font-size="48" transform="matrix(1 0 0 1 1469.77 393)">)</text><text font-family="Yu Gothic,Yu Gothic_MSFontService,sans-serif" font-weight="400" font-size="48" transform="matrix(1 0 0 1 718.674 451)">! </text><text font-family="Yu Gothic,Yu Gothic_MSFontService,sans-serif" font-weight="400" font-size="48" transform="matrix(1 0 0 1 748.466 451)">[OUT]</text><text font-family="Yu Gothic,Yu Gothic_MSFontService,sans-serif" font-weight="400" font-size="48" transform="matrix(1 0 0 1 718.674 508)">! </text><text font-family="Yu Gothic,Yu Gothic_MSFontService,sans-serif" font-weight="400" font-size="48" transform="matrix(1 0 0 1 748.466 508)">ByearAA</text><text font-family="Yu Gothic,Yu Gothic_MSFontService,sans-serif" font-weight="400" font-size="48" transform="matrix(1 0 0 1 939.247 508)">: </text><text font-family="Yu Gothic,Yu Gothic_MSFontService,sans-serif" font-weight="400" font-size="48" transform="matrix(1 0 0 1 966.747 508)">基本となる建屋倒壊判定閾値</text><text font-family="Yu Gothic,Yu Gothic_MSFontService,sans-serif" font-weight="400" font-size="48" transform="matrix(1 0 0 1 1592.37 508)">BCritA</text><text font-family="Yu Gothic,Yu Gothic_MSFontService,sans-serif" font-weight="400" font-size="48" transform="matrix(1 0 0 1 1736.75 508)">にかける倍率</text><text font-family="Yu Gothic,Yu Gothic_MSFontService,sans-serif" font-weight="400" font-size="48" transform="matrix(1 0 0 1 718.674 566)">!          </text><text font-family="Yu Gothic,Yu Gothic_MSFontService,sans-serif" font-weight="400" font-size="48" transform="matrix(1 0 0 1 872.216 566)">年代・階数等によって変動。</text><text font-family="Yu Gothic,Yu Gothic_MSFontService,sans-serif" font-weight="400" font-size="48" transform="matrix(1 0 0 1 718.674 624)">! </text><text font-family="Yu Gothic,Yu Gothic_MSFontService,sans-serif" font-weight="400" font-size="48" transform="matrix(1 0 0 1 748.466 624)">cforce</text><text font-family="Yu Gothic,Yu Gothic_MSFontService,sans-serif" font-weight="400" font-size="48" transform="matrix(1 0 0 1 885.966 624)">: </text><text font-family="Yu Gothic,Yu Gothic_MSFontService,sans-serif" font-weight="400" font-size="48" transform="matrix(1 0 0 1 913.466 624)">建屋倒壊とみなす単位長さあたりの力の閾値</text><text font-family="Yu Gothic,Yu Gothic_MSFontService,sans-serif" font-weight="400" font-size="48" transform="matrix(1 0 0 1 1875.97 624)">(N/m)</text><text font-family="Yu Gothic,Yu Gothic_MSFontService,sans-serif" font-weight="400" font-size="48" transform="matrix(1 0 0 1 2232.33 104)">IBStoryA</text><text font-family="Yu Gothic,Yu Gothic_MSFontService,sans-serif" font-weight="400" font-size="48" transform="matrix(1 0 0 1 2426.55 104)">: </text><text font-family="Yu Gothic,Yu Gothic_MSFontService,sans-serif" font-weight="400" font-size="48" transform="matrix(1 0 0 1 2454.05 104)">建物階数コード</text><text font-family="Yu Gothic,Yu Gothic_MSFontService,sans-serif" font-weight="400" font-size="48" transform="matrix(1 0 0 1 2287.33 162)">501: </text><text font-family="Yu Gothic,Yu Gothic_MSFontService,sans-serif" font-weight="400" font-size="48" transform="matrix(1 0 0 1 2395.61 162)">地下階なし</text><text font-family="Yu Gothic,Yu Gothic_MSFontService,sans-serif" font-weight="400" font-size="48" transform="matrix(1 0 0 1 2636.24 162)">_</text><text font-family="Yu Gothic,Yu Gothic_MSFontService,sans-serif" font-weight="400" font-size="48" transform="matrix(1 0 0 1 2660.3 162)">地上</text><text font-family="Yu Gothic,Yu Gothic_MSFontService,sans-serif" font-weight="400" font-size="48" transform="matrix(1 0 0 1 2756.55 162)">1</text><text font-family="Yu Gothic,Yu Gothic_MSFontService,sans-serif" font-weight="400" font-size="48" transform="matrix(1 0 0 1 2783.48 162)">階</text><text font-family="Yu Gothic,Yu Gothic_MSFontService,sans-serif" font-weight="400" font-size="48" transform="matrix(1 0 0 1 2287.33 220)">502: </text><text font-family="Yu Gothic,Yu Gothic_MSFontService,sans-serif" font-weight="400" font-size="48" transform="matrix(1 0 0 1 2395.61 220)">地下階なし</text><text font-family="Yu Gothic,Yu Gothic_MSFontService,sans-serif" font-weight="400" font-size="48" transform="matrix(1 0 0 1 2636.24 220)">_</text><text font-family="Yu Gothic,Yu Gothic_MSFontService,sans-serif" font-weight="400" font-size="48" transform="matrix(1 0 0 1 2660.3 220)">地上</text><text font-family="Yu Gothic,Yu Gothic_MSFontService,sans-serif" font-weight="400" font-size="48" transform="matrix(1 0 0 1 2756.55 220)">2</text><text font-family="Yu Gothic,Yu Gothic_MSFontService,sans-serif" font-weight="400" font-size="48" transform="matrix(1 0 0 1 2783.48 220)">階</text><text font-family="Yu Gothic,Yu Gothic_MSFontService,sans-serif" font-weight="400" font-size="48" transform="matrix(1 0 0 1 2287.33 277)">503: </text><text font-family="Yu Gothic,Yu Gothic_MSFontService,sans-serif" font-weight="400" font-size="48" transform="matrix(1 0 0 1 2395.61 277)">地下階なし</text><text font-family="Yu Gothic,Yu Gothic_MSFontService,sans-serif" font-weight="400" font-size="48" transform="matrix(1 0 0 1 2636.24 277)">_</text><text font-family="Yu Gothic,Yu Gothic_MSFontService,sans-serif" font-weight="400" font-size="48" transform="matrix(1 0 0 1 2660.3 277)">地上</text><text font-family="Yu Gothic,Yu Gothic_MSFontService,sans-serif" font-weight="400" font-size="48" transform="matrix(1 0 0 1 2756.55 277)">3</text><text font-family="Yu Gothic,Yu Gothic_MSFontService,sans-serif" font-weight="400" font-size="48" transform="matrix(1 0 0 1 2783.48 277)">階</text><text font-family="Yu Gothic,Yu Gothic_MSFontService,sans-serif" font-weight="400" font-size="48" transform="matrix(1 0 0 1 2287.33 335)">504: </text><text font-family="Yu Gothic,Yu Gothic_MSFontService,sans-serif" font-weight="400" font-size="48" transform="matrix(1 0 0 1 2395.61 335)">地下階なし</text><text font-family="Yu Gothic,Yu Gothic_MSFontService,sans-serif" font-weight="400" font-size="48" transform="matrix(1 0 0 1 2636.24 335)">_</text><text font-family="Yu Gothic,Yu Gothic_MSFontService,sans-serif" font-weight="400" font-size="48" transform="matrix(1 0 0 1 2660.3 335)">地上</text><text font-family="Yu Gothic,Yu Gothic_MSFontService,sans-serif" font-weight="400" font-size="48" transform="matrix(1 0 0 1 2756.55 335)">4</text><text font-family="Yu Gothic,Yu Gothic_MSFontService,sans-serif" font-weight="400" font-size="48" transform="matrix(1 0 0 1 2783.48 335)">-</text><text font-family="Yu Gothic,Yu Gothic_MSFontService,sans-serif" font-weight="400" font-size="48" transform="matrix(1 0 0 1 2804.68 335)">5</text><text font-family="Yu Gothic,Yu Gothic_MSFontService,sans-serif" font-weight="400" font-size="48" transform="matrix(1 0 0 1 2831.6 335)">階</text><text font-family="Yu Gothic,Yu Gothic_MSFontService,sans-serif" font-weight="400" font-size="48" transform="matrix(1 0 0 1 2287.33 393)">505: </text><text font-family="Yu Gothic,Yu Gothic_MSFontService,sans-serif" font-weight="400" font-size="48" transform="matrix(1 0 0 1 2395.61 393)">地下階なし</text><text font-family="Yu Gothic,Yu Gothic_MSFontService,sans-serif" font-weight="400" font-size="48" transform="matrix(1 0 0 1 2636.24 393)">_</text><text font-family="Yu Gothic,Yu Gothic_MSFontService,sans-serif" font-weight="400" font-size="48" transform="matrix(1 0 0 1 2660.3 393)">地上</text><text font-family="Yu Gothic,Yu Gothic_MSFontService,sans-serif" font-weight="400" font-size="48" transform="matrix(1 0 0 1 2756.55 393)">6</text><text font-family="Yu Gothic,Yu Gothic_MSFontService,sans-serif" font-weight="400" font-size="48" transform="matrix(1 0 0 1 2783.48 393)">-</text><text font-family="Yu Gothic,Yu Gothic_MSFontService,sans-serif" font-weight="400" font-size="48" transform="matrix(1 0 0 1 2804.68 393)">7</text><text font-family="Yu Gothic,Yu Gothic_MSFontService,sans-serif" font-weight="400" font-size="48" transform="matrix(1 0 0 1 2831.6 393)">階</text><text font-family="Yu Gothic,Yu Gothic_MSFontService,sans-serif" font-weight="400" font-size="48" transform="matrix(1 0 0 1 2287.33 451)">506: </text><text font-family="Yu Gothic,Yu Gothic_MSFontService,sans-serif" font-weight="400" font-size="48" transform="matrix(1 0 0 1 2395.61 451)">地下階なし</text><text font-family="Yu Gothic,Yu Gothic_MSFontService,sans-serif" font-weight="400" font-size="48" transform="matrix(1 0 0 1 2636.24 451)">_</text><text font-family="Yu Gothic,Yu Gothic_MSFontService,sans-serif" font-weight="400" font-size="48" transform="matrix(1 0 0 1 2660.3 451)">地上</text><text font-family="Yu Gothic,Yu Gothic_MSFontService,sans-serif" font-weight="400" font-size="48" transform="matrix(1 0 0 1 2756.55 451)">8</text><text font-family="Yu Gothic,Yu Gothic_MSFontService,sans-serif" font-weight="400" font-size="48" transform="matrix(1 0 0 1 2783.48 451)">-</text><text font-family="Yu Gothic,Yu Gothic_MSFontService,sans-serif" font-weight="400" font-size="48" transform="matrix(1 0 0 1 2804.68 451)">10</text><text font-family="Yu Gothic,Yu Gothic_MSFontService,sans-serif" font-weight="400" font-size="48" transform="matrix(1 0 0 1 2858.53 451)">階</text><text font-family="Yu Gothic,Yu Gothic_MSFontService,sans-serif" font-weight="400" font-size="48" transform="matrix(1 0 0 1 2287.33 508)">507: </text><text font-family="Yu Gothic,Yu Gothic_MSFontService,sans-serif" font-weight="400" font-size="48" transform="matrix(1 0 0 1 2395.61 508)">地下階なし</text><text font-family="Yu Gothic,Yu Gothic_MSFontService,sans-serif" font-weight="400" font-size="48" transform="matrix(1 0 0 1 2636.24 508)">_</text><text font-family="Yu Gothic,Yu Gothic_MSFontService,sans-serif" font-weight="400" font-size="48" transform="matrix(1 0 0 1 2660.3 508)">地上</text><text font-family="Yu Gothic,Yu Gothic_MSFontService,sans-serif" font-weight="400" font-size="48" transform="matrix(1 0 0 1 2756.55 508)">11</text><text font-family="Yu Gothic,Yu Gothic_MSFontService,sans-serif" font-weight="400" font-size="48" transform="matrix(1 0 0 1 2810.4 508)">-</text><text font-family="Yu Gothic,Yu Gothic_MSFontService,sans-serif" font-weight="400" font-size="48" transform="matrix(1 0 0 1 2831.6 508)">15</text><text font-family="Yu Gothic,Yu Gothic_MSFontService,sans-serif" font-weight="400" font-size="48" transform="matrix(1 0 0 1 2885.46 508)">階</text><text font-family="Yu Gothic,Yu Gothic_MSFontService,sans-serif" font-weight="400" font-size="48" transform="matrix(1 0 0 1 2287.33 566)">508: </text><text font-family="Yu Gothic,Yu Gothic_MSFontService,sans-serif" font-weight="400" font-size="48" transform="matrix(1 0 0 1 2395.61 566)">地下階なし</text><text font-family="Yu Gothic,Yu Gothic_MSFontService,sans-serif" font-weight="400" font-size="48" transform="matrix(1 0 0 1 2636.24 566)">_</text><text font-family="Yu Gothic,Yu Gothic_MSFontService,sans-serif" font-weight="400" font-size="48" transform="matrix(1 0 0 1 2660.3 566)">地上</text><text font-family="Yu Gothic,Yu Gothic_MSFontService,sans-serif" font-weight="400" font-size="48" transform="matrix(1 0 0 1 2756.55 566)">16</text><text font-family="Yu Gothic,Yu Gothic_MSFontService,sans-serif" font-weight="400" font-size="48" transform="matrix(1 0 0 1 2810.4 566)">階</text><text font-family="Yu Gothic,Yu Gothic_MSFontService,sans-serif" font-weight="400" font-size="48" transform="matrix(1 0 0 1 2858.53 566)">以上</text><text font-family="Yu Gothic,Yu Gothic_MSFontService,sans-serif" font-weight="400" font-size="48" transform="matrix(1 0 0 1 3055.01 162)">511: </text><text font-family="Yu Gothic,Yu Gothic_MSFontService,sans-serif" font-weight="400" font-size="48" transform="matrix(1 0 0 1 3163.29 162)">地下階あり</text><text font-family="Yu Gothic,Yu Gothic_MSFontService,sans-serif" font-weight="400" font-size="48" transform="matrix(1 0 0 1 3403.92 162)">_</text><text font-family="Yu Gothic,Yu Gothic_MSFontService,sans-serif" font-weight="400" font-size="48" transform="matrix(1 0 0 1 3427.98 162)">地上</text><text font-family="Yu Gothic,Yu Gothic_MSFontService,sans-serif" font-weight="400" font-size="48" transform="matrix(1 0 0 1 3524.23 162)">1</text><text font-family="Yu Gothic,Yu Gothic_MSFontService,sans-serif" font-weight="400" font-size="48" transform="matrix(1 0 0 1 3551.16 162)">階</text><text font-family="Yu Gothic,Yu Gothic_MSFontService,sans-serif" font-weight="400" font-size="48" transform="matrix(1 0 0 1 3055.01 220)">512: </text><text font-family="Yu Gothic,Yu Gothic_MSFontService,sans-serif" font-weight="400" font-size="48" transform="matrix(1 0 0 1 3163.29 220)">地下階あり</text><text font-family="Yu Gothic,Yu Gothic_MSFontService,sans-serif" font-weight="400" font-size="48" transform="matrix(1 0 0 1 3403.92 220)">_</text><text font-family="Yu Gothic,Yu Gothic_MSFontService,sans-serif" font-weight="400" font-size="48" transform="matrix(1 0 0 1 3427.98 220)">地上</text><text font-family="Yu Gothic,Yu Gothic_MSFontService,sans-serif" font-weight="400" font-size="48" transform="matrix(1 0 0 1 3524.23 220)">2</text><text font-family="Yu Gothic,Yu Gothic_MSFontService,sans-serif" font-weight="400" font-size="48" transform="matrix(1 0 0 1 3551.16 220)">階</text><text font-family="Yu Gothic,Yu Gothic_MSFontService,sans-serif" font-weight="400" font-size="48" transform="matrix(1 0 0 1 3055.01 277)">513: </text><text font-family="Yu Gothic,Yu Gothic_MSFontService,sans-serif" font-weight="400" font-size="48" transform="matrix(1 0 0 1 3163.29 277)">地下階あり</text><text font-family="Yu Gothic,Yu Gothic_MSFontService,sans-serif" font-weight="400" font-size="48" transform="matrix(1 0 0 1 3403.92 277)">_</text><text font-family="Yu Gothic,Yu Gothic_MSFontService,sans-serif" font-weight="400" font-size="48" transform="matrix(1 0 0 1 3427.98 277)">地上</text><text font-family="Yu Gothic,Yu Gothic_MSFontService,sans-serif" font-weight="400" font-size="48" transform="matrix(1 0 0 1 3524.23 277)">3</text><text font-family="Yu Gothic,Yu Gothic_MSFontService,sans-serif" font-weight="400" font-size="48" transform="matrix(1 0 0 1 3551.16 277)">階</text><text font-family="Yu Gothic,Yu Gothic_MSFontService,sans-serif" font-weight="400" font-size="48" transform="matrix(1 0 0 1 3055.01 335)">514: </text><text font-family="Yu Gothic,Yu Gothic_MSFontService,sans-serif" font-weight="400" font-size="48" transform="matrix(1 0 0 1 3163.29 335)">地下階あり</text><text font-family="Yu Gothic,Yu Gothic_MSFontService,sans-serif" font-weight="400" font-size="48" transform="matrix(1 0 0 1 3403.92 335)">_</text><text font-family="Yu Gothic,Yu Gothic_MSFontService,sans-serif" font-weight="400" font-size="48" transform="matrix(1 0 0 1 3427.98 335)">地上</text><text font-family="Yu Gothic,Yu Gothic_MSFontService,sans-serif" font-weight="400" font-size="48" transform="matrix(1 0 0 1 3524.23 335)">4</text><text font-family="Yu Gothic,Yu Gothic_MSFontService,sans-serif" font-weight="400" font-size="48" transform="matrix(1 0 0 1 3551.16 335)">-</text><text font-family="Yu Gothic,Yu Gothic_MSFontService,sans-serif" font-weight="400" font-size="48" transform="matrix(1 0 0 1 3572.36 335)">5</text><text font-family="Yu Gothic,Yu Gothic_MSFontService,sans-serif" font-weight="400" font-size="48" transform="matrix(1 0 0 1 3599.28 335)">階</text><text font-family="Yu Gothic,Yu Gothic_MSFontService,sans-serif" font-weight="400" font-size="48" transform="matrix(1 0 0 1 3055.01 393)">515: </text><text font-family="Yu Gothic,Yu Gothic_MSFontService,sans-serif" font-weight="400" font-size="48" transform="matrix(1 0 0 1 3163.29 393)">地下階あり</text><text font-family="Yu Gothic,Yu Gothic_MSFontService,sans-serif" font-weight="400" font-size="48" transform="matrix(1 0 0 1 3403.92 393)">_</text><text font-family="Yu Gothic,Yu Gothic_MSFontService,sans-serif" font-weight="400" font-size="48" transform="matrix(1 0 0 1 3427.98 393)">地上</text><text font-family="Yu Gothic,Yu Gothic_MSFontService,sans-serif" font-weight="400" font-size="48" transform="matrix(1 0 0 1 3524.23 393)">6</text><text font-family="Yu Gothic,Yu Gothic_MSFontService,sans-serif" font-weight="400" font-size="48" transform="matrix(1 0 0 1 3551.16 393)">-</text><text font-family="Yu Gothic,Yu Gothic_MSFontService,sans-serif" font-weight="400" font-size="48" transform="matrix(1 0 0 1 3572.36 393)">7</text><text font-family="Yu Gothic,Yu Gothic_MSFontService,sans-serif" font-weight="400" font-size="48" transform="matrix(1 0 0 1 3599.28 393)">階</text><text font-family="Yu Gothic,Yu Gothic_MSFontService,sans-serif" font-weight="400" font-size="48" transform="matrix(1 0 0 1 3055.01 451)">516: </text><text font-family="Yu Gothic,Yu Gothic_MSFontService,sans-serif" font-weight="400" font-size="48" transform="matrix(1 0 0 1 3163.29 451)">地下階あり</text><text font-family="Yu Gothic,Yu Gothic_MSFontService,sans-serif" font-weight="400" font-size="48" transform="matrix(1 0 0 1 3403.92 451)">_</text><text font-family="Yu Gothic,Yu Gothic_MSFontService,sans-serif" font-weight="400" font-size="48" transform="matrix(1 0 0 1 3427.98 451)">地上</text><text font-family="Yu Gothic,Yu Gothic_MSFontService,sans-serif" font-weight="400" font-size="48" transform="matrix(1 0 0 1 3524.23 451)">8</text><text font-family="Yu Gothic,Yu Gothic_MSFontService,sans-serif" font-weight="400" font-size="48" transform="matrix(1 0 0 1 3551.16 451)">-</text><text font-family="Yu Gothic,Yu Gothic_MSFontService,sans-serif" font-weight="400" font-size="48" transform="matrix(1 0 0 1 3572.36 451)">10</text><text font-family="Yu Gothic,Yu Gothic_MSFontService,sans-serif" font-weight="400" font-size="48" transform="matrix(1 0 0 1 3626.21 451)">階</text><text font-family="Yu Gothic,Yu Gothic_MSFontService,sans-serif" font-weight="400" font-size="48" transform="matrix(1 0 0 1 3055.01 508)">517: </text><text font-family="Yu Gothic,Yu Gothic_MSFontService,sans-serif" font-weight="400" font-size="48" transform="matrix(1 0 0 1 3163.29 508)">地下階あり</text><text font-family="Yu Gothic,Yu Gothic_MSFontService,sans-serif" font-weight="400" font-size="48" transform="matrix(1 0 0 1 3403.92 508)">_</text><text font-family="Yu Gothic,Yu Gothic_MSFontService,sans-serif" font-weight="400" font-size="48" transform="matrix(1 0 0 1 3427.98 508)">地上</text><text font-family="Yu Gothic,Yu Gothic_MSFontService,sans-serif" font-weight="400" font-size="48" transform="matrix(1 0 0 1 3524.23 508)">11</text><text font-family="Yu Gothic,Yu Gothic_MSFontService,sans-serif" font-weight="400" font-size="48" transform="matrix(1 0 0 1 3578.09 508)">-</text><text font-family="Yu Gothic,Yu Gothic_MSFontService,sans-serif" font-weight="400" font-size="48" transform="matrix(1 0 0 1 3599.28 508)">15</text><text font-family="Yu Gothic,Yu Gothic_MSFontService,sans-serif" font-weight="400" font-size="48" transform="matrix(1 0 0 1 3653.14 508)">階</text><text font-family="Yu Gothic,Yu Gothic_MSFontService,sans-serif" font-weight="400" font-size="48" transform="matrix(1 0 0 1 3055.01 566)">518: </text><text font-family="Yu Gothic,Yu Gothic_MSFontService,sans-serif" font-weight="400" font-size="48" transform="matrix(1 0 0 1 3163.29 566)">地下階あり</text><text font-family="Yu Gothic,Yu Gothic_MSFontService,sans-serif" font-weight="400" font-size="48" transform="matrix(1 0 0 1 3403.92 566)">_</text><text font-family="Yu Gothic,Yu Gothic_MSFontService,sans-serif" font-weight="400" font-size="48" transform="matrix(1 0 0 1 3427.98 566)">地上</text><text font-family="Yu Gothic,Yu Gothic_MSFontService,sans-serif" font-weight="400" font-size="48" transform="matrix(1 0 0 1 3524.23 566)">16</text><text font-family="Yu Gothic,Yu Gothic_MSFontService,sans-serif" font-weight="400" font-size="48" transform="matrix(1 0 0 1 3578.09 566)">階以上</text><text font-family="Yu Gothic,Yu Gothic_MSFontService,sans-serif" font-weight="400" font-size="48" transform="matrix(1 0 0 1 3055.01 624)">521: </text><text font-family="Yu Gothic,Yu Gothic_MSFontService,sans-serif" font-weight="400" font-size="48" transform="matrix(1 0 0 1 3163.29 624)">不明</text></g></svg>